<svg width="19" height="18" viewBox="0 0 19 18" fill="none" xmlns="http://www.w3.org/2000/svg">
<g clip-path="url(#clip0_401_191)">
<path d="M0.991699 9C0.991699 4.02891 5.02061 0 9.9917 0C14.9628 0 18.9917 4.02891 18.9917 9C18.9917 13.9711 14.9628 18 9.9917 18C5.02061 18 0.991699 13.9711 0.991699 9ZM14.0628 7.44609C14.446 7.06289 14.446 6.43711 14.0628 6.05391C13.6796 5.6707 13.0538 5.6707 12.6706 6.05391L8.8667 9.85781L7.31279 8.30391C6.92959 7.9207 6.30381 7.9207 5.92061 8.30391C5.5374 8.68711 5.5374 9.31289 5.92061 9.69609L8.17061 11.9461C8.55381 12.3293 9.17959 12.3293 9.56279 11.9461L14.0628 7.44609Z" fill="#1AD0D1"/>
</g>
<defs>
<clipPath id="clip0_401_191">
<rect width="18" height="18" fill="white" transform="translate(0.991699)"/>
</clipPath>
</defs>
</svg>
