<svg width="16" height="16" viewBox="0 0 16 16" fill="none" xmlns="http://www.w3.org/2000/svg">
<g id="google">
<path id="Vector" d="M15.8472 6.5H8.16992V9.5825L12.5914 9.58345C12.4121 10.6091 11.8349 11.4834 10.9506 12.0663V12.0668C10.9509 12.0666 10.9513 12.0664 10.9516 12.0663L10.872 13.9086L13.5836 14.0652C13.5832 14.0655 13.5828 14.0659 13.5825 14.0662H13.5826C15.1193 12.6735 15.9998 10.6147 15.9998 8.18237C15.9997 7.59756 15.9463 7.03805 15.8472 6.5Z" fill="#518EF8"/>
<path id="Vector_2" d="M10.9527 12.0668C10.9524 12.067 10.952 12.0672 10.9517 12.0674C10.2193 12.5508 9.27612 12.8337 8.17297 12.8337C6.04092 12.8337 4.23228 11.4269 3.58458 9.53074H3.58429C3.58439 9.53103 3.58448 9.53141 3.58458 9.5317L1.32089 9.18066L0.870117 11.5938C2.21532 14.2071 4.97957 16.0002 8.17307 16.0002C10.3799 16.0002 12.2339 15.2897 13.5837 14.0666C13.5841 14.0663 13.5845 14.066 13.5848 14.0657L10.9527 12.0668Z" fill="#28B446"/>
<path id="Vector_3" d="M3.32826 8.00067C3.32826 7.46825 3.41888 6.95358 3.58395 6.46973L2.8771 4.40723H0.868995C0.312889 5.488 0 6.70789 0 8.00067C0 9.29346 0.313863 10.5133 0.868995 11.5941L0.869385 11.5938L3.58395 9.53162C3.58385 9.53133 3.58375 9.53104 3.58366 9.53066C3.41878 9.04719 3.32826 8.53281 3.32826 8.00067Z" fill="#FBBB00"/>
<path id="Vector_4" d="M8.17248 0C4.97967 0 2.21424 1.79343 0.869141 4.40705L3.584 6.46956C4.2317 4.57336 6.04034 3.16665 8.17238 3.16665C9.37717 3.16665 10.4562 3.57303 11.308 4.36698L13.6404 2.08502C12.2239 0.792999 10.377 0 8.17248 0Z" fill="#F14336"/>
</g>
</svg>
