<svg width="45" height="62" viewBox="0 0 45 62" fill="none" xmlns="http://www.w3.org/2000/svg">
<path d="M12.7037 0.0822814C17.006 -0.596578 21.4129 3.02118 21.5091 7.39416C21.8655 11.1194 19.0709 14.8277 15.3965 15.5178C12.2483 16.2759 8.7409 14.8135 7.05507 12.05C5.33246 9.31759 5.52197 5.54427 7.54441 3.01552C8.8201 1.44849 10.6841 0.336854 12.7037 0.0822814Z" fill="#1AD0D1"/>
<path d="M3.53586 23.5847C6.62184 19.9641 11.7246 18.1453 16.3918 19.1975C20.8185 20.0999 24.4108 23.3782 26.5944 27.2222L26.6454 27.3156C22.8749 30.2007 21.2399 35.0574 21.0787 39.6595C20.7704 47.5258 23.7149 55.0894 27.4119 61.8921C23.8309 60.5599 20.4112 58.8061 17.1187 56.8714C12.3525 53.9862 7.89753 50.4392 4.57112 45.9276C1.97166 42.3891 0.18399 38.149 0.00296082 33.728C-0.0677537 30.0791 1.12874 26.3567 3.53586 23.5847Z" fill="#1AD0D1"/>
<path d="M33.0069 9.02299C35.5979 8.49122 38.4746 10.0271 39.3712 12.5389C40.2085 14.6321 39.6767 17.2372 37.9711 18.7448C36.1806 20.5183 33.154 20.8097 31.0411 19.4548C29.1742 18.329 28.1418 16.0435 28.4331 13.891C28.6679 11.4839 30.6196 9.41616 33.0069 9.02299Z" fill="#9F5FFE"/>
<path d="M26.5942 27.2222C27.9745 26.4274 29.3379 25.5251 30.9304 25.2168C33.5836 24.7416 36.4744 24.9509 38.8052 26.4104C41.9279 28.1839 43.9588 31.5782 44.3577 35.1111C44.4708 36.6753 44.4821 38.2593 44.2671 39.8151C43.6081 43.5658 41.8798 47.0619 39.682 50.145C36.3924 54.8235 32.0166 58.5912 27.4682 61.9996C29.5387 54.4162 30.8286 46.4905 30.0111 38.6214C29.6462 34.6755 28.5261 30.8089 26.6451 27.3156L26.5942 27.2222Z" fill="#9F5FFE"/>
<path d="M21.0784 39.6601C21.2396 35.058 22.8745 30.2013 26.645 27.3162C28.526 30.8095 29.6461 34.6761 30.011 38.622C30.8285 46.4911 29.5387 54.4168 27.4681 62.0002L27.4116 61.8927C23.7146 55.09 20.7701 47.5264 21.0784 39.6601Z" fill="#4742E7"/>
</svg>
